<svg id="Capa_1" enable-background="new 0 0 512 512" height="512" viewBox="0 0 512 512" width="512" xmlns="http://www.w3.org/2000/svg"><g><circle cx="322.69" cy="441.802" r="7.5"/><circle cx="256" cy="430.58" r="7.5"/><circle cx="70.331" cy="199.174" r="7.5"/><path d="m337.67 138.985c33.046 0 59.931-26.885 59.931-59.93 0-10.48-2.747-20.797-7.944-29.836-2.066-3.59-6.65-4.828-10.24-2.763-3.591 2.065-4.828 6.65-2.764 10.241 3.892 6.767 5.948 14.499 5.948 22.359 0 24.774-20.156 44.93-44.931 44.93-24.774 0-44.93-20.156-44.93-44.93 0-24.775 20.155-44.931 44.93-44.931 6.909 0 13.533 1.524 19.688 4.529 3.723 1.819 8.214.273 10.03-3.448 1.817-3.722.273-8.213-3.448-10.03-8.222-4.015-17.061-6.051-26.27-6.051-33.045 0-59.93 26.885-59.93 59.931 0 33.044 26.885 59.929 59.93 59.929z"/><path d="m493.39 189.649h-19.539v-7.285c5.27-.665 11.841-2.554 17.231-7.935 6.207-6.195 9.354-15.52 9.354-27.716 0-28.904-13.278-70.89-34.085-70.89s-34.084 41.985-34.084 70.89c0 12.196 3.147 21.52 9.353 27.716 5.396 5.386 11.96 7.271 17.23 7.936v7.285h-111.706c-36.823 0-73.696-8.705-106.632-25.172-4.102-2.051-8.314-4.016-12.523-5.84-.501-.217-1.014-.372-1.529-.475-.885-15.625-4.558-32.459-10.208-46.292-9.896-24.227-21.038-29.313-28.643-29.313s-18.746 5.085-28.643 29.313c-3.364 8.234-6.021 17.535-7.814 27.009-7.964-.756-16.004-1.158-23.983-1.158h-40.932c.179-.642.282-1.315.282-2.014v-13.638c5.269-.666 11.84-2.555 17.23-7.935 6.206-6.195 9.354-15.52 9.354-27.716 0-28.904-13.277-70.89-34.084-70.89s-34.085 41.985-34.085 70.89c0 12.195 3.147 21.521 9.354 27.715 5.396 5.386 11.96 7.272 17.231 7.937v13.637c0 .699.103 1.372.282 2.014h-55.156c-9.178-.001-16.645 7.465-16.645 16.642v334.607c0 4.142 3.357 7.5 7.5 7.5h91.998c.005 0 .01.001.016.001.005 0 .009-.001.014-.001h404.972c4.143 0 7.5-3.358 7.5-7.5v-280.711c0-10.262-8.349-18.611-18.61-18.611zm-41.173-25.836c-3.284-3.279-4.95-9.032-4.95-17.1 0-13.036 2.897-27.912 7.751-39.793 5.404-13.233 10.389-16.097 11.333-16.097s5.929 2.864 11.334 16.097c4.853 11.881 7.751 26.757 7.751 39.793 0 8.067-1.665 13.82-4.95 17.099-1.885 1.881-4.266 2.855-6.635 3.364v-20.291c0-4.142-3.357-7.5-7.5-7.5s-7.5 3.358-7.5 7.5v20.294c-2.369-.511-4.75-1.486-6.634-3.366zm-387.333-60.296c-3.284-3.279-4.95-9.032-4.95-17.099 0-13.036 2.897-27.911 7.751-39.793 5.405-13.233 10.39-16.097 11.334-16.097s5.929 2.864 11.333 16.097c4.854 11.881 7.751 26.757 7.751 39.793 0 8.067-1.666 13.821-4.95 17.1-1.885 1.882-4.265 2.855-6.634 3.364v-20.293c0-4.142-3.357-7.5-7.5-7.5s-7.5 3.358-7.5 7.5v20.295c-2.369-.51-4.75-1.485-6.635-3.367zm377.325 168.374c-1.325-3.733-2.819-7.596-4.477-11.42h59.268v92.637h-40.769c.023-.896.043-1.794.043-2.712 0-23.981-5.389-54.063-14.065-78.505zm-37.062 57.699c-4.143 0-7.5 3.358-7.5 7.5v52.406c-6.109-.475-13.548-2.103-19.093-7.637-6.327-6.315-9.535-16.901-9.535-31.464 0-22.388 5.059-50.547 13.201-73.487 3.992-11.246 8.49-20.527 13.007-26.841 5.494-7.68 8.982-8.276 9.92-8.276s4.426.597 9.919 8.276c4.518 6.314 9.015 15.595 13.007 26.841 8.142 22.94 13.201 51.099 13.201 73.487 0 14.563-3.208 25.149-9.535 31.464-5.545 5.535-12.982 7.157-19.092 7.633v-52.402c0-4.142-3.357-7.5-7.5-7.5zm-232.295-212.047c5.947-14.559 12.208-19.985 14.757-19.985s8.809 5.426 14.756 19.985c5.827 14.266 9.307 32.127 9.307 47.776 0 9.965-2.116 17.129-6.29 21.295-2.941 2.936-6.726 4.167-10.272 4.685v-25.777c0-4.142-3.357-7.5-7.5-7.5s-7.5 3.358-7.5 7.5v25.78c-3.547-.518-7.33-1.75-10.273-4.688-4.174-4.166-6.29-11.331-6.29-21.295-.001-15.65 3.478-33.51 9.305-47.776zm-156.207 35.178h110.525c7.29 0 14.635.353 21.915 1.024-.348 3.929-.539 7.811-.539 11.574 0 14.093 3.598 24.83 10.692 31.912 6.525 6.513 14.644 8.54 20.871 9.167v17.441c0 4.142 3.357 7.5 7.5 7.5s7.5-3.358 7.5-7.5v-17.448c6.227-.626 14.342-2.644 20.869-9.159 5.511-5.5 8.902-13.215 10.146-22.985 2.583 1.178 5.155 2.387 7.678 3.648 35.009 17.504 74.201 26.756 113.341 26.756h146.247c1.991 0 3.61 1.62 3.61 3.61v37.211h-66.047c-.307 0-.609.024-.906.06-6.65-10.715-14.949-18.74-24.899-18.74-9.932 0-18.218 7.995-24.863 18.68h-365.285v-91.107c0-.907.737-1.644 1.645-1.644zm107.088 328.75c12.135-9.058 23.573-19.033 34.149-29.845 19.112-19.539 40.946-36.111 64.896-49.256 3.631-1.993 4.959-6.552 2.967-10.183-1.993-3.631-6.552-4.959-10.184-2.966-25.243 13.854-48.257 31.322-68.402 51.917-14.967 15.302-31.74 28.851-49.857 40.334h-82.302v-51.603h38.644c4.142 0 7.5-3.358 7.5-7.5s-3.358-7.5-7.5-7.5h-38.644v-154.398h357.563c-1.658 3.824-3.152 7.687-4.478 11.42-8.676 24.442-14.065 54.523-14.065 78.505 0 .927.021 1.835.043 2.74-35.999.283-71.235 7.088-104.766 20.272-3.855 1.516-5.751 5.87-4.235 9.725 1.161 2.954 3.988 4.758 6.982 4.757.913 0 1.842-.168 2.742-.522 32.287-12.695 66.238-19.167 100.922-19.252 2.111 10.152 6.197 18.318 12.251 24.36 9.392 9.375 21.156 11.561 29.689 12.065v29.76c0 4.142 3.357 7.5 7.5 7.5s7.5-3.358 7.5-7.5v-29.76c8.532-.505 20.298-2.692 29.688-12.065 6.055-6.044 10.142-14.212 12.253-24.368h42.411v113.363z"/><path d="m121.381 288.397h-30.429c-4.143 0-7.5 3.358-7.5 7.5s3.357 7.5 7.5 7.5h30.429c4.143 0 7.5-3.358 7.5-7.5s-3.358-7.5-7.5-7.5z"/><path d="m201.316 329.693h-63.06c-4.143 0-7.5 3.358-7.5 7.5s3.357 7.5 7.5 7.5h63.06c4.143 0 7.5-3.358 7.5-7.5s-3.357-7.5-7.5-7.5z"/></g></svg>